<svg width="42" height="1059" viewBox="0 0 42 1059" fill="none" xmlns="http://www.w3.org/2000/svg">
<path d="M20.6471 38.4367V194.5M20.6471 230.791V386.855M20.6471 424.082V580.145M20.6471 616.437V772.5M20.6471 810.082V1018.71M39 21.0727C39 31.054 30.9411 39.1454 21 39.1454C11.0589 39.1454 3 31.054 3 21.0727C3 11.0914 11.0589 3 21 3C30.9411 3 39 11.0914 39 21.0727ZM39 213.427C39 223.409 30.9411 231.5 21 231.5C11.0589 231.5 3 223.409 3 213.427C3 203.446 11.0589 195.355 21 195.355C30.9411 195.355 39 203.446 39 213.427ZM39 406.718C39 416.699 30.9411 424.791 21 424.791C11.0589 424.791 3 416.699 3 406.718C3 396.737 11.0589 388.645 21 388.645C30.9411 388.645 39 396.737 39 406.718ZM39 599.073C39 609.054 30.9411 617.145 21 617.145C11.0589 617.145 3 609.054 3 599.073C3 589.091 11.0589 581 21 581C30.9411 581 39 589.091 39 599.073ZM39 792.718C39 802.699 30.9411 810.791 21 810.791C11.0589 810.791 3 802.699 3 792.718C3 782.737 11.0589 774.645 21 774.645C30.9411 774.645 39 782.737 39 792.718ZM39 1037.64C39 1047.62 30.9411 1055.71 21 1055.71C11.0589 1055.71 3 1047.62 3 1037.64C3 1027.65 11.0589 1019.56 21 1019.56C30.9411 1019.56 39 1027.65 39 1037.64Z" stroke="url(#paint0_linear_2_1133)" stroke-width="6"/>
<defs>
<linearGradient id="paint0_linear_2_1133" x1="8.91428" y1="3.00043" x2="44.0996" y2="3.29128" gradientUnits="userSpaceOnUse">
<stop stop-color="#54D6FF"/>
<stop offset="0.546875" stop-color="#C275FF"/>
<stop offset="1" stop-color="#F36AFF"/>
</linearGradient>
</defs>
</svg>
