<svg width="297" height="78" viewBox="0 0 297 78" fill="none" xmlns="http://www.w3.org/2000/svg">
<path d="M33.4809 38.294H42.9039V41.264H33.4809V38.294ZM33.7779 48.5H30.2679V29.6H44.0649V32.543H33.7779V48.5ZM47.1353 48.5V34.082H50.5103V48.5H47.1353ZM48.8363 31.706C48.2063 31.706 47.6843 31.508 47.2703 31.112C46.8743 30.716 46.6763 30.239 46.6763 29.681C46.6763 29.105 46.8743 28.628 47.2703 28.25C47.6843 27.854 48.2063 27.656 48.8363 27.656C49.4663 27.656 49.9793 27.845 50.3753 28.223C50.7893 28.583 50.9963 29.042 50.9963 29.6C50.9963 30.194 50.7983 30.698 50.4023 31.112C50.0063 31.508 49.4843 31.706 48.8363 31.706ZM63.121 33.92C64.273 33.92 65.299 34.145 66.199 34.595C67.117 35.045 67.837 35.738 68.359 36.674C68.881 37.592 69.142 38.78 69.142 40.238V48.5H65.767V40.67C65.767 39.392 65.461 38.438 64.849 37.808C64.255 37.178 63.418 36.863 62.338 36.863C61.546 36.863 60.844 37.025 60.232 37.349C59.62 37.673 59.143 38.159 58.801 38.807C58.477 39.437 58.315 40.238 58.315 41.21V48.5H54.94V34.082H58.153V37.97L57.586 36.782C58.09 35.864 58.819 35.162 59.773 34.676C60.745 34.172 61.861 33.92 63.121 33.92ZM79.5517 48.689C78.1657 48.689 76.9147 48.383 75.7987 47.771C74.7007 47.141 73.8367 46.277 73.2067 45.179C72.5767 44.081 72.2617 42.785 72.2617 41.291C72.2617 39.797 72.5767 38.501 73.2067 37.403C73.8367 36.305 74.7007 35.45 75.7987 34.838C76.9147 34.226 78.1657 33.92 79.5517 33.92C80.7577 33.92 81.8377 34.19 82.7917 34.73C83.7457 35.252 84.5017 36.053 85.0597 37.133C85.6177 38.213 85.8967 39.599 85.8967 41.291C85.8967 42.965 85.6267 44.351 85.0867 45.449C84.5467 46.529 83.7997 47.339 82.8457 47.879C81.8917 48.419 80.7937 48.689 79.5517 48.689ZM79.9567 45.8C80.7667 45.8 81.4867 45.62 82.1167 45.26C82.7647 44.9 83.2777 44.378 83.6557 43.694C84.0517 43.01 84.2497 42.209 84.2497 41.291C84.2497 40.355 84.0517 39.554 83.6557 38.888C83.2777 38.204 82.7647 37.682 82.1167 37.322C81.4867 36.962 80.7667 36.782 79.9567 36.782C79.1467 36.782 78.4177 36.962 77.7697 37.322C77.1397 37.682 76.6267 38.204 76.2307 38.888C75.8527 39.554 75.6637 40.355 75.6637 41.291C75.6637 42.209 75.8527 43.01 76.2307 43.694C76.6267 44.378 77.1397 44.9 77.7697 45.26C78.4177 45.62 79.1467 45.8 79.9567 45.8ZM84.3307 48.5V45.098L84.4657 41.264L84.1957 37.43V28.466H87.5437V48.5H84.3307ZM105.928 48.689C104.452 48.689 103.138 48.374 101.986 47.744C100.834 47.096 99.9248 46.214 99.2588 45.098C98.5928 43.982 98.2598 42.713 98.2598 41.291C98.2598 39.851 98.5928 38.582 99.2588 37.484C99.9248 36.368 100.834 35.495 101.986 34.865C103.138 34.235 104.452 33.92 105.928 33.92C107.422 33.92 108.745 34.235 109.897 34.865C111.067 35.495 111.976 36.359 112.624 37.457C113.29 38.555 113.623 39.833 113.623 41.291C113.623 42.713 113.29 43.982 112.624 45.098C111.976 46.214 111.067 47.096 109.897 47.744C108.745 48.374 107.422 48.689 105.928 48.689ZM105.928 45.8C106.756 45.8 107.494 45.62 108.142 45.26C108.79 44.9 109.294 44.378 109.654 43.694C110.032 43.01 110.221 42.209 110.221 41.291C110.221 40.355 110.032 39.554 109.654 38.888C109.294 38.204 108.79 37.682 108.142 37.322C107.494 36.962 106.765 36.782 105.955 36.782C105.127 36.782 104.389 36.962 103.741 37.322C103.111 37.682 102.607 38.204 102.229 38.888C101.851 39.554 101.662 40.355 101.662 41.291C101.662 42.209 101.851 43.01 102.229 43.694C102.607 44.378 103.111 44.9 103.741 45.26C104.389 45.62 105.118 45.8 105.928 45.8ZM122.952 48.689C121.728 48.689 120.648 48.464 119.712 48.014C118.776 47.546 118.047 46.844 117.525 45.908C117.003 44.954 116.742 43.757 116.742 42.317V34.082H120.117V41.858C120.117 43.154 120.405 44.126 120.981 44.774C121.575 45.404 122.412 45.719 123.492 45.719C124.284 45.719 124.968 45.557 125.544 45.233C126.138 44.909 126.597 44.423 126.921 43.775C127.263 43.127 127.434 42.326 127.434 41.372V34.082H130.809V48.5H127.596V44.612L128.163 45.8C127.677 46.736 126.966 47.456 126.03 47.96C125.094 48.446 124.068 48.689 122.952 48.689ZM140.655 48.689C139.071 48.689 137.847 48.284 136.983 47.474C136.119 46.646 135.687 45.431 135.687 43.829V30.896H139.062V43.748C139.062 44.432 139.233 44.963 139.575 45.341C139.935 45.719 140.43 45.908 141.06 45.908C141.816 45.908 142.446 45.71 142.95 45.314L143.895 47.717C143.499 48.041 143.013 48.284 142.437 48.446C141.861 48.608 141.267 48.689 140.655 48.689ZM133.311 36.89V34.19H142.923V36.89H133.311ZM172.331 33.92C173.483 33.92 174.5 34.145 175.382 34.595C176.282 35.045 176.984 35.738 177.488 36.674C177.992 37.592 178.244 38.78 178.244 40.238V48.5H174.869V40.67C174.869 39.392 174.59 38.438 174.032 37.808C173.474 37.178 172.673 36.863 171.629 36.863C170.891 36.863 170.234 37.025 169.658 37.349C169.1 37.673 168.659 38.15 168.335 38.78C168.029 39.41 167.876 40.211 167.876 41.183V48.5H164.501V40.67C164.501 39.392 164.222 38.438 163.664 37.808C163.106 37.178 162.305 36.863 161.261 36.863C160.523 36.863 159.866 37.025 159.29 37.349C158.732 37.673 158.291 38.15 157.967 38.78C157.661 39.41 157.508 40.211 157.508 41.183V48.5H154.133V34.082H157.346V37.916L156.779 36.782C157.265 35.846 157.967 35.135 158.885 34.649C159.821 34.163 160.883 33.92 162.071 33.92C163.421 33.92 164.591 34.253 165.581 34.919C166.589 35.585 167.255 36.593 167.579 37.943L166.256 37.484C166.724 36.404 167.498 35.54 168.578 34.892C169.658 34.244 170.909 33.92 172.331 33.92ZM189.064 48.689C187.588 48.689 186.274 48.374 185.122 47.744C183.97 47.096 183.061 46.214 182.395 45.098C181.729 43.982 181.396 42.713 181.396 41.291C181.396 39.851 181.729 38.582 182.395 37.484C183.061 36.368 183.97 35.495 185.122 34.865C186.274 34.235 187.588 33.92 189.064 33.92C190.558 33.92 191.881 34.235 193.033 34.865C194.203 35.495 195.112 36.359 195.76 37.457C196.426 38.555 196.759 39.833 196.759 41.291C196.759 42.713 196.426 43.982 195.76 45.098C195.112 46.214 194.203 47.096 193.033 47.744C191.881 48.374 190.558 48.689 189.064 48.689ZM189.064 45.8C189.892 45.8 190.63 45.62 191.278 45.26C191.926 44.9 192.43 44.378 192.79 43.694C193.168 43.01 193.357 42.209 193.357 41.291C193.357 40.355 193.168 39.554 192.79 38.888C192.43 38.204 191.926 37.682 191.278 37.322C190.63 36.962 189.901 36.782 189.091 36.782C188.263 36.782 187.525 36.962 186.877 37.322C186.247 37.682 185.743 38.204 185.365 38.888C184.987 39.554 184.798 40.355 184.798 41.291C184.798 42.209 184.987 43.01 185.365 43.694C185.743 44.378 186.247 44.9 186.877 45.26C187.525 45.62 188.254 45.8 189.064 45.8ZM199.986 48.5V34.082H203.199V38.051L202.821 36.89C203.253 35.918 203.928 35.18 204.846 34.676C205.782 34.172 206.943 33.92 208.329 33.92V37.133C208.185 37.097 208.05 37.079 207.924 37.079C207.798 37.061 207.672 37.052 207.546 37.052C206.268 37.052 205.251 37.43 204.495 38.186C203.739 38.924 203.361 40.031 203.361 41.507V48.5H199.986ZM217.837 48.689C216.235 48.689 214.831 48.374 213.625 47.744C212.437 47.096 211.51 46.214 210.844 45.098C210.196 43.982 209.872 42.713 209.872 41.291C209.872 39.851 210.187 38.582 210.817 37.484C211.465 36.368 212.347 35.495 213.463 34.865C214.597 34.235 215.884 33.92 217.324 33.92C218.728 33.92 219.979 34.226 221.077 34.838C222.175 35.45 223.039 36.314 223.669 37.43C224.299 38.546 224.614 39.86 224.614 41.372C224.614 41.516 224.605 41.678 224.587 41.858C224.587 42.038 224.578 42.209 224.56 42.371H212.545V40.13H222.778L221.455 40.832C221.473 40.004 221.302 39.275 220.942 38.645C220.582 38.015 220.087 37.52 219.457 37.16C218.845 36.8 218.134 36.62 217.324 36.62C216.496 36.62 215.767 36.8 215.137 37.16C214.525 37.52 214.039 38.024 213.679 38.672C213.337 39.302 213.166 40.049 213.166 40.913V41.453C213.166 42.317 213.364 43.082 213.76 43.748C214.156 44.414 214.714 44.927 215.434 45.287C216.154 45.647 216.982 45.827 217.918 45.827C218.728 45.827 219.457 45.701 220.105 45.449C220.753 45.197 221.329 44.801 221.833 44.261L223.642 46.34C222.994 47.096 222.175 47.681 221.185 48.095C220.213 48.491 219.097 48.689 217.837 48.689Z" fill="white"/>
<path fill-rule="evenodd" clip-rule="evenodd" d="M251.777 29.6448L251.845 30.6001L255.92 30.1798L259.995 29.7594L251.557 39.8151L243.12 49.8707L243.859 50.4907L244.597 51.1107L253.035 41.0551L261.473 30.9994L261.767 35.0859L262.06 39.1723L263.013 39.0727L263.966 38.9731L263.554 33.2412L263.142 27.5093L257.425 28.0995L251.708 28.6896L251.777 29.6448Z" fill="white"/>
<path d="M1.5 60C1.5 27.6913 27.6913 1.5 60 1.5H295.5V18C295.5 50.3087 269.309 76.5 237 76.5H1.5V60Z" stroke="url(#paint0_linear_2_681)" stroke-width="3"/>
<defs>
<linearGradient id="paint0_linear_2_681" x1="82.2313" y1="2.63107e-06" x2="97.4243" y2="95.173" gradientUnits="userSpaceOnUse">
<stop stop-color="#B2FF0F"/>
<stop offset="1" stop-color="#76FFEF"/>
</linearGradient>
</defs>
</svg>
